<svg fill="none" xmlns="http://www.w3.org/2000/svg" viewBox="-54.28 0.73 211.27 249.52">
<path d="M148.515 123.182C145.793 134.48 139.53 142.866 131.573 149.935C128.148 150.726 125.252 152.747 123.027 155.791C122.654 156.336 122.331 156.914 122.062 157.518C120.399 158.688 118.667 159.888 116.941 161.058C116.804 161.159 116.646 161.227 116.479 161.257C116.312 161.288 116.14 161.281 115.976 161.236C99.9024 156.639 100.058 147.77 103.452 141.067C103.545 140.918 103.666 140.79 103.809 140.69C103.952 140.589 104.113 140.519 104.284 140.482C138.976 134.305 143.656 93.0025 124.287 69.4099C124.134 69.2146 124.048 68.9746 124.043 68.7263C124.038 68.4779 124.114 68.2346 124.259 68.0331C124.404 67.8315 124.611 67.6827 124.848 67.609C125.085 67.5353 125.34 67.5407 125.573 67.6245C148.573 75.5922 153.899 100.995 148.515 123.182Z" fill="url(#paint0_linear_58479_11553)"/>
<path d="M150.884 159.714C144.535 152.042 131.601 147.596 124.814 157.08C122.91 159.741 122.237 164.426 123.057 167.939C123.525 170.016 123.994 172.269 126.042 173.85C130.021 176.982 134.88 173.911 131.632 171.188C123.087 164.105 131.338 155.76 138.36 160.005C143.54 162.699 144.477 173.237 139.53 176.397C126.505 182.807 111.88 171.773 103.48 162.611C100.936 159.86 92.0983 146.101 92.9491 139.398C96.3163 135.827 99.4174 131.993 102.46 128.186C107.551 121.893 113.579 115.711 117.852 108.838C121.245 103.366 121.245 98.0676 119.9 91.949C116.799 77.519 110.508 64.5222 102.718 52.0273C94.4706 38.7921 84.8679 26.1169 73.6356 15.2576C68.6305 10.4559 63.0712 5.30489 56.7304 2.40779C54.491 1.42672 52.0914 0.863007 49.6496 0.744385C47.2078 0.863007 44.8082 1.42672 42.5688 2.40779C36.2197 5.30489 30.652 10.4476 25.6636 15.2576C20.3175 20.4444 15.3314 25.9899 10.7399 31.8557C12.0314 32.6391 13.0983 33.7435 13.8369 35.0614C14.5756 36.3794 14.9608 37.8661 14.9551 39.377C14.9551 41.7246 14.025 43.9765 12.3684 45.6394C10.7119 47.3022 8.46402 48.2405 6.11729 48.2485C4.01033 48.2567 1.97233 47.498 0.383373 46.1138C-0.905304 48.0739 -2.19397 50.0339 -3.42168 52.0245C-11.2036 64.525 -17.4669 77.5301 -20.604 91.9463C-21.9481 98.0648 -21.9204 103.363 -18.5255 108.835C-14.2826 115.714 -8.25491 121.89 -3.16394 128.184C0.641113 132.897 4.50159 137.726 8.86369 141.97C-12.9357 141.18 -36.6972 151.455 -48.1678 168.347C-67.0712 196.153 -38.7757 227.533 -9.19163 216.555C-7.49556 215.942 -7.49556 213.627 -9.10294 212.837C-30.5532 202.302 -30.3481 175.372 -5.30065 167.468C-3.56968 166.967 -1.74599 166.877 0.0258675 167.204C-4.59674 170.808 -8.08031 175.546 -9.04475 181.665C-10.1283 188.396 -8.25491 196.184 -3.66002 201.277C1.05127 206.544 8.10158 209.18 14.7445 211.024C29.5795 215.183 46.5512 215.063 60.2749 222.585C66.0393 225.748 70.019 230.577 70.9834 237.162C71.4823 240.616 71.8314 241.963 69.4619 244.539C67.0924 247.115 67.8241 249.105 70.1049 250.247C74.406 248.226 78.358 245.828 81.1653 242.579C84.1525 239.157 85.8503 234.798 85.9653 230.256C86.1399 225.718 85.2919 221.035 83.7122 216.497C82.6119 213.353 81.1223 210.36 79.2781 207.586C78.4604 206.369 77.5691 205.202 76.6093 204.093L75.6171 202.965C75.4619 202.799 75.3012 202.638 75.1404 202.471L74.0319 201.443C73.8545 201.282 73.6855 201.124 73.5137 200.963C70.8393 198.745 67.8823 196.777 64.8781 194.825C60.6186 192.006 56.3091 189.184 52.2214 186.042C49.4162 183.947 46.7561 181.664 44.2593 179.209C43.0329 178.061 41.8875 176.83 40.8312 175.524C39.2765 173.462 37.73 171.052 37.7688 168.202C37.7874 166.809 38.3353 165.475 39.3014 164.471C40.0108 163.639 40.9282 163.129 41.8483 162.658C42.1004 162.522 42.3499 162.381 42.5993 162.236C42.5577 162.264 42.5189 162.295 42.4774 162.32L42.5245 162.295C40.4238 163.681 38.5476 165.804 38.8413 168.191C38.9383 170.559 40.5346 172.652 42.0145 174.582C42.8459 175.582 43.7466 176.547 44.675 177.484C47.3217 180.068 50.3064 182.355 53.3161 184.548C57.4731 187.476 61.8186 190.093 66.1945 192.735C68.0292 193.844 69.8832 195.005 71.7067 196.228C71.9839 196.4 72.261 196.564 72.5575 196.738C72.8818 196.957 73.1589 197.207 73.4693 197.431C73.9875 197.792 74.4725 198.18 74.9603 198.565C75.4481 198.951 75.8859 199.286 76.346 199.674L77.4545 200.581L78.2139 201.338C78.4217 201.537 78.649 201.706 78.854 201.911C79.8573 202.94 80.794 204.016 81.6919 205.125C82.1242 205.624 82.5954 206.078 83.0138 206.588C99.3648 213.317 117.473 216.685 133.142 210.625C151.763 203.397 165.37 177.188 150.884 159.714ZM8.10157 64.9325C7.44302 64.9364 6.79814 64.7445 6.2487 64.3813C5.69926 64.0181 5.26999 63.4999 5.0153 62.8923C4.76062 62.2848 4.69199 61.6153 4.81811 60.9687C4.94423 60.322 5.25942 59.7274 5.72374 59.2602C6.18805 58.793 6.78058 58.4743 7.42621 58.3443C8.07184 58.2144 8.7415 58.2791 9.35031 58.5303C9.95912 58.7815 10.4797 59.2079 10.8459 59.7554C11.2122 60.3029 11.4078 60.9469 11.4078 61.6057C11.4078 62.4847 11.0601 63.3279 10.4406 63.9513C9.82112 64.5746 8.98022 64.9274 8.10157 64.9325ZM16.9394 57.7605C15.8426 57.7632 14.7696 57.4404 13.8563 56.8328C12.943 56.2252 12.2304 55.3602 11.8087 54.3473C11.3871 53.3343 11.2754 52.2191 11.4877 51.1426C11.7 50.0661 12.2268 49.0768 13.0014 48.3C13.776 47.5232 14.7635 46.9937 15.8391 46.7787C16.9147 46.5636 18.0298 46.6726 19.0434 47.0918C20.057 47.5111 20.9235 48.2218 21.5331 49.1339C22.1428 50.046 22.4682 51.1185 22.4682 52.2158C22.4682 53.6858 21.8847 55.0957 20.8458 56.1355C19.8069 57.1752 18.3979 57.7597 16.9283 57.7605H16.9394Z" fill="url(#paint1_linear_58479_11553)"/>
<path d="M154.476 113.388C154.476 113.388 156.69 112.396 156.69 111.172C156.69 109.949 155.699 108.957 154.476 108.957C153.253 108.957 152.261 109.949 152.261 111.172C152.261 112.396 154.476 113.388 154.476 113.388Z" fill="#AC3FE4"/>
<path d="M153.492 126.878C153.492 126.878 156.812 125.391 156.812 123.557C156.812 121.722 155.326 120.235 153.492 120.235C151.658 120.235 150.172 121.722 150.172 123.557C150.172 125.391 153.492 126.878 153.492 126.878Z" fill="#AC3FE4"/>
<path d="M150.449 138.031C152.283 138.031 153.769 136.544 153.769 134.71C153.769 132.875 152.283 131.388 150.449 131.388C148.615 131.388 147.129 132.875 147.129 134.71C147.129 136.544 148.615 138.031 150.449 138.031Z" fill="#AC3FE4"/>
<path d="M135.608 170.049C137.442 170.049 138.929 168.562 138.929 166.728C138.929 164.893 137.442 163.406 135.608 163.406C133.775 163.406 132.288 164.893 132.288 166.728C132.288 168.562 133.775 170.049 135.608 170.049Z" fill="#AC3FE4"/>
<path d="M65.5516 237.106C66.7745 237.106 67.7659 236.115 67.7659 234.891C67.7659 233.668 66.7745 232.676 65.5516 232.676C64.3286 232.676 63.3373 233.668 63.3373 234.891C63.3373 236.115 64.3286 237.106 65.5516 237.106Z" fill="#A076F9"/>
<path d="M57.1794 230.2C59.013 230.2 60.4994 228.713 60.4994 226.879C60.4994 225.045 59.013 223.558 57.1794 223.558C55.3457 223.558 53.8593 225.045 53.8593 226.879C53.8593 228.713 55.3457 230.2 57.1794 230.2Z" fill="#A076F9"/>
<path d="M-7.22952 210.009C-6.00659 210.009 -5.0152 209.018 -5.0152 207.794C-5.0152 206.571 -6.00659 205.579 -7.22952 205.579C-8.45245 205.579 -9.44382 206.571 -9.44382 207.794C-9.44382 209.018 -8.45245 210.009 -7.22952 210.009Z" fill="#A076F9"/>
<path d="M-15.1999 201.31C-13.3663 201.31 -11.8798 199.823 -11.8798 197.989C-11.8798 196.154 -13.3663 194.667 -15.1999 194.667C-17.0335 194.667 -18.52 196.154 -18.52 197.989C-18.52 199.823 -17.0335 201.31 -15.1999 201.31Z" fill="#A076F9"/>
<path d="M49.6441 126.978C51.2154 126.775 52.5041 126.573 53.7124 130.069C54.9207 133.565 57.1405 139.88 62.1788 146.537C67.2172 153.193 78.103 155.006 87.7805 153.19C97.4581 151.374 100.681 140.887 101.285 134.71C101.889 128.533 104.309 125.561 106.526 122.536C108.743 119.512 107.13 118.101 99.2705 116.285C91.411 114.469 71.4518 114.269 65.4047 116.285C59.3576 118.3 49.6441 119.118 49.6441 119.118C49.6441 119.118 39.9277 118.311 33.8806 116.293C27.8335 114.275 7.87709 114.48 0.0147858 116.293C-7.84752 118.106 -9.45768 119.52 -7.2406 122.545C-5.02352 125.569 -2.60415 128.541 -1.99999 134.718C-1.39584 140.895 1.83002 151.385 11.5048 153.199C21.1796 155.012 32.0682 153.198 37.1065 146.545C42.1448 139.891 44.3619 133.57 45.5729 130.077C46.784 126.584 48.0699 126.775 49.6441 126.978Z" fill="#F7288E"/>
<path d="M42.264 128.927C41.3272 134.546 39.1046 139.55 35.5046 143.504C34.81 144.243 34.0773 144.947 33.3097 145.611C32.9605 145.904 32.6086 146.196 32.2289 146.459C30.8537 147.509 29.3721 148.412 27.8086 149.154C19.295 153.279 6.65493 151.671 2.70299 142.04C1.00692 137.854 0.485916 132.994 0.44989 128.516C0.44989 125.414 0.333485 121.081 3.31823 119.237C5.60181 117.851 12.0674 117.394 18.7962 117.51H20.2317C20.847 117.541 21.4899 117.568 22.1052 117.568C28.7176 117.862 34.9504 118.622 36.9679 119.528C39.3984 120.637 40.9476 121.666 41.7679 123.102C42.5882 124.538 42.7046 126.326 42.264 128.927Z" fill="#2F2667"/>
<path d="M98.1703 128.516C98.1703 132.994 97.6437 137.854 95.9172 142.04C95.5055 143.069 94.9654 144.043 94.3098 144.937C93.7332 145.743 93.0655 146.48 92.32 147.133C91.9655 147.466 91.5836 147.77 91.1782 148.039C85.5607 152.109 77.0748 152.198 70.8116 149.148C62.5308 145.137 57.85 137.759 56.3867 128.91C55.5082 123.582 56.9133 121.649 61.6523 119.512C63.7585 118.577 70.2435 117.815 77.0416 117.552C77.5404 117.524 78.067 117.524 78.563 117.493C79.558 117.463 80.5833 117.463 81.5783 117.463C87.6752 117.463 93.2539 117.962 95.3297 119.221C98.3283 121.081 98.2119 125.414 98.1703 128.516Z" fill="#2F2667"/>
<path d="M98.1703 128.516C98.1703 132.994 97.6437 137.854 95.9172 142.04C95.5055 143.069 94.9654 144.043 94.3098 144.937L81.5811 117.491C87.678 117.491 93.2567 117.99 95.3325 119.248C98.3283 121.081 98.2119 125.414 98.1703 128.516Z" fill="#5C5CA0"/>
<path d="M92.3311 147.133C91.9766 147.466 91.5947 147.77 91.1893 148.039L77.0554 117.568C77.5543 117.541 78.0808 117.541 78.5769 117.51L92.3311 147.133Z" fill="#5C5CA0"/>
<path d="M33.3984 145.816C33.0465 146.093 32.6668 146.312 32.2899 146.548L32.2317 146.459L18.7962 117.51H20.2317L33.3208 145.611L33.3984 145.816Z" fill="#5C5CA0"/>
<path d="M42.264 128.927C41.3272 134.546 39.1046 139.55 35.5046 143.504L22.1052 117.568C28.7176 117.862 34.9504 118.622 36.9679 119.528C39.3984 120.637 40.9476 121.666 41.7679 123.102C42.5882 124.538 42.7046 126.326 42.264 128.927Z" fill="#5C5CA0"/>
<defs>
<linearGradient id="paint0_linear_58479_11553" x1="-54.2786" y1="125.487" x2="156.964" y2="125.487" gradientUnits="userSpaceOnUse">
<stop stop-color="#A076F9"/>
<stop offset="0.51" stop-color="#A076F9"/>
<stop offset="1" stop-color="#AC3FE4"/>
</linearGradient>
<linearGradient id="paint1_linear_58479_11553" x1="-54.2925" y1="125.494" x2="156.962" y2="125.494" gradientUnits="userSpaceOnUse">
<stop stop-color="#A076F9"/>
<stop offset="0.51" stop-color="#A076F9"/>
<stop offset="1" stop-color="#AC3FE4"/>
</linearGradient>
</defs>
</svg>