<svg width="18" height="18" viewBox="0 0 20 20" fill="none" xmlns="http://www.w3.org/2000/svg">
<path fill-rule="evenodd" clip-rule="evenodd" d="M10 8.74228e-07C4.47 3.9078e-07 -3.9078e-07 4.47 -8.74228e-07 10C-1.35768e-06 15.53 4.47 20 10 20C15.53 20 20 15.53 20 10C20 4.47 15.53 1.35768e-06 10 8.74228e-07ZM10 18C5.59 18 2 14.41 2 10C2 5.59 5.59 2 10 2C14.41 2 18 5.59 18 10C18 14.41 14.41 18 10 18ZM10 8.59L13.59 5L15 6.41L11.41 10L15 13.59L13.59 15L10 11.41L6.41 15L5 13.59L8.59 10L5 6.41L6.41 5L10 8.59Z" fill="#49454E"/>
</svg>
