<svg xmlns="http://www.w3.org/2000/svg" width="24" height="24" viewBox="0 0 24 24" fill="none">
  <path d="M22.92 6C22.15 6.35 21.32 6.58 20.46 6.69C21.34 6.16 22.02 5.32 22.34 4.31C21.51 4.81 20.59 5.16 19.62 5.36C18.83 4.5 17.72 4 16.46 4C14.11 4 12.19 5.92 12.19 8.29C12.19 8.63 12.23 8.96 12.3 9.27C8.74 9.09 5.57 7.38 3.46 4.79C3.09 5.42 2.88 6.16 2.88 6.94C2.88 8.43 3.63 9.75 4.79 10.5C4.08 10.5 3.42 10.3 2.84 10V10.03C2.84 12.11 4.32 13.85 6.28 14.24C5.65073 14.4122 4.9901 14.4362 4.35 14.31C4.62161 15.1625 5.15354 15.9084 5.87102 16.4429C6.5885 16.9775 7.45545 17.2737 8.35 17.29C6.83363 18.4904 4.954 19.1393 3.02 19.13C2.68 19.13 2.34 19.11 2 19.07C3.9 20.29 6.16 21 8.58 21C16.46 21 20.79 14.46 20.79 8.79C20.79 8.6 20.79 8.42 20.78 8.23C21.62 7.63 22.34 6.87 22.92 6Z" fill="#C00016"/>
</svg>