<svg width="40" height="40" viewBox="0 0 40 40" fill="none" xmlns="http://www.w3.org/2000/svg">
<path id="Vector" d="M5 7.5H7.5V10H5V7.5ZM5 12.5H7.5V15H5V12.5ZM22.5 7.5H25V10H22.5V7.5ZM36.7773 25H30.7227L33.75 21.9922L36.7773 25ZM27.5 18.75C27.5 18.4115 27.6237 18.1185 27.8711 17.8711C28.1185 17.6237 28.4115 17.5 28.75 17.5C29.0885 17.5 29.3815 17.6237 29.6289 17.8711C29.8763 18.1185 30 18.4115 30 18.75C30 19.0885 29.8763 19.3815 29.6289 19.6289C29.3815 19.8763 29.0885 20 28.75 20C28.4115 20 28.1185 19.8763 27.8711 19.6289C27.6237 19.3815 27.5 19.0885 27.5 18.75ZM40 12.5V30H37.5V15H12.5V25.7227L18.75 19.4922L27.5 28.2227L30 25.7227V29.2773L29.2773 30H25.7227L18.75 23.0078L12.5 29.2773V32.5H25V35H10V22.5H0V0H30V12.5H40ZM27.5 12.5V2.5H25V5H22.5V2.5H7.5V5H5V2.5H2.5V20H5V17.5H7.5V20H10V12.5H27.5ZM35 32.5H40V35H35V40H32.5V35H27.5V32.5H32.5V27.5H35V32.5Z" fill="#5800C8"/>
</svg>
