<svg width="20" height="17" viewBox="0 0 20 17" fill="none" xmlns="http://www.w3.org/2000/svg">
<path d="M12.49 7.94C12.4744 7.28914 12.2055 6.67005 11.7405 6.21438C11.2755 5.75871 10.651 5.50242 10 5.5L12.49 7.94Z" fill="#7A757F"/>
<path d="M8.2 3.9C8.76501 3.64103 9.37848 3.5047 10 3.5C11.1935 3.5 12.3381 3.97411 13.182 4.81802C14.0259 5.66193 14.5 6.80653 14.5 8C14.4997 8.53013 14.4014 9.05563 14.21 9.55L17 12.14C18.2456 10.9558 19.2626 9.55245 20 8C20 8 17 1 10 1C8.62109 0.992769 7.25681 1.28268 6 1.85L8.2 3.9ZM2 0L1 1L3.55 3.4C2.05582 4.66612 0.846054 6.2337 0 8C0 8 3 15 10 15C11.6192 15.0067 13.2144 14.6079 14.64 13.84L18 17L19 16L2 0ZM10 12.5C8.80653 12.5 7.66193 12.0259 6.81802 11.182C5.97411 10.3381 5.5 9.19347 5.5 8C5.50552 7.227 5.71231 6.46877 6.1 5.8L7.63 7.24C7.54763 7.48509 7.50377 7.74147 7.5 8C7.49899 8.407 7.59776 8.80805 7.78767 9.16804C7.97758 9.52802 8.25284 9.83596 8.58934 10.0649C8.92585 10.2939 9.31335 10.4368 9.71792 10.4813C10.1225 10.5258 10.5318 10.4704 10.91 10.32L12.45 11.77C11.7218 12.2467 10.8703 12.5004 10 12.5Z" fill="#7A757F"/>
</svg>
