<svg width="16" height="20" viewBox="0 0 16 20" fill="none" xmlns="http://www.w3.org/2000/svg">
<path d="M8 0.5C3.58 0.5 0 1 0 4.5V14.5C0 15.38 0.39 16.17 1 16.72V18.5C1 19.05 1.45 19.5 2 19.5H3C3.55 19.5 4 19.05 4 18.5V17.5H12V18.5C12 19.05 12.45 19.5 13 19.5H14C14.55 19.5 15 19.05 15 18.5V16.72C15.61 16.17 16 15.38 16 14.5V4.5C16 1 12.42 0.5 8 0.5ZM13.66 3.49H2.34C2.89 2.96 4.31 2.5 8 2.5C11.69 2.5 13.11 2.96 13.66 3.49ZM14 5.49V8.5H2V5.49H14ZM13.66 15.23L13.37 15.5H2.63L2.34 15.23C2.21 15.12 2 14.87 2 14.5V10.5H14V14.5C14 14.87 13.79 15.12 13.66 15.23Z" fill="black"/>
<path d="M4.5 14.5C5.32843 14.5 6 13.8284 6 13C6 12.1716 5.32843 11.5 4.5 11.5C3.67157 11.5 3 12.1716 3 13C3 13.8284 3.67157 14.5 4.5 14.5Z" fill="black"/>
<path d="M11.5 14.5C12.3284 14.5 13 13.8284 13 13C13 12.1716 12.3284 11.5 11.5 11.5C10.6716 11.5 10 12.1716 10 13C10 13.8284 10.6716 14.5 11.5 14.5Z" fill="black"/>
</svg>
