<svg width="20" height="20" viewBox="0 0 20 20" fill="none" xmlns="http://www.w3.org/2000/svg">
<path d="M19.25 13.7V3.9875C19.25 2.19636 17.8036 0.75 16.0125 0.75H3.9875C2.19636 0.75 0.75 2.19636 0.75 3.9875V16.0125C0.75 17.8036 2.19636 19.25 3.9875 19.25H13.7L19.25 13.7ZM3.9875 17.4C3.22227 17.4 2.6 16.7777 2.6 16.0125V3.9875C2.6 3.22227 3.22227 2.6 3.9875 2.6H16.0125C16.7777 2.6 17.4 3.22227 17.4 3.9875V12.775H16.0125C14.2214 12.775 12.775 14.2214 12.775 16.0125V17.4H3.9875ZM7.93136 7.94818C7.6875 7.09045 6.79614 6.58591 5.93841 6.82977C5.08068 7.07364 4.57614 7.965 4.82 8.83114C4.88727 9.06659 5.005 9.27682 5.15636 9.45341L7.965 8.66295C8.00705 8.4275 7.99864 8.18364 7.93136 7.94818ZM13.7168 6.31682C13.4814 5.45909 12.5816 4.95455 11.7239 5.19841C10.8661 5.44227 10.3616 6.33364 10.6055 7.19977C10.6727 7.43523 10.7905 7.64545 10.9418 7.82205L13.7505 7.03159C13.7925 6.79614 13.7841 6.55227 13.7168 6.31682ZM14.5409 9.20955L5.62727 11.7239C6.82977 13.3132 8.91523 14.0868 10.9418 13.515C12.9684 12.9432 14.3391 11.1857 14.5409 9.20955Z" fill="black"/>
</svg>
