<svg width="20" height="20" viewBox="0 0 20 20" fill="none" xmlns="http://www.w3.org/2000/svg">
<path d="M17.43 10.98C17.47 10.66 17.5 10.34 17.5 10C17.5 9.66 17.47 9.34 17.43 9.02L19.54 7.37C19.73 7.22 19.78 6.95 19.66 6.73L17.66 3.27C17.54 3.05 17.27 2.97 17.05 3.05L14.56 4.05C14.04 3.65 13.48 3.32 12.87 3.07L12.49 0.42C12.46 0.18 12.25 0 12 0H7.99999C7.74999 0 7.53999 0.18 7.50999 0.42L7.12999 3.07C6.51999 3.32 5.95999 3.66 5.43999 4.05L2.94999 3.05C2.71999 2.96 2.45999 3.05 2.33999 3.27L0.339992 6.73C0.209992 6.95 0.269992 7.22 0.459992 7.37L2.56999 9.02C2.52999 9.34 2.49999 9.67 2.49999 10C2.49999 10.33 2.52999 10.66 2.56999 10.98L0.459992 12.63C0.269992 12.78 0.219992 13.05 0.339992 13.27L2.33999 16.73C2.45999 16.95 2.72999 17.03 2.94999 16.95L5.43999 15.95C5.95999 16.35 6.51999 16.68 7.12999 16.93L7.50999 19.58C7.53999 19.82 7.74999 20 7.99999 20H12C12.25 20 12.46 19.82 12.49 19.58L12.87 16.93C13.48 16.68 14.04 16.34 14.56 15.95L17.05 16.95C17.28 17.04 17.54 16.95 17.66 16.73L19.66 13.27C19.78 13.05 19.73 12.78 19.54 12.63L17.43 10.98ZM9.99999 13.5C8.06999 13.5 6.49999 11.93 6.49999 10C6.49999 8.07 8.06999 6.5 9.99999 6.5C11.93 6.5 13.5 8.07 13.5 10C13.5 11.93 11.93 13.5 9.99999 13.5Z" fill="black"/>
</svg>
