<svg width="20" height="22" viewBox="0 0 20 22" fill="none" xmlns="http://www.w3.org/2000/svg">
<path fill-rule="evenodd" clip-rule="evenodd" d="M13.31 20.03C13.21 20.71 12.59 21.25 11.85 21.25H8.14999C7.40999 21.25 6.78999 20.71 6.69999 19.98L6.42999 18.09C6.15999 17.95 5.89999 17.8 5.63999 17.63L3.83999 18.35C3.13999 18.61 2.36999 18.32 2.02999 17.7L0.19999 14.53C-0.15001 13.87 -9.83477e-06 13.09 0.55999 12.65L2.08999 11.46C2.07999 11.31 2.06999 11.16 2.06999 11C2.06999 10.85 2.07999 10.69 2.08999 10.54L0.56999 9.35001C-0.0200098 8.90001 -0.17001 8.09001 0.19999 7.47001L2.04999 4.28001C2.38999 3.66001 3.15999 3.38001 3.83999 3.65001L5.64999 4.38001C5.90999 4.21001 6.16999 4.06001 6.42999 3.92001L6.69999 2.01001C6.78999 1.31001 7.40999 0.76001 8.13999 0.76001H11.84C12.58 0.76001 13.2 1.30001 13.29 2.03001L13.56 3.92001C13.83 4.06001 14.09 4.21001 14.35 4.38001L16.15 3.66001C16.86 3.40001 17.63 3.69001 17.97 4.31001L19.81 7.49001C20.17 8.15001 20.01 8.93001 19.45 9.37001L17.93 10.56C17.94 10.71 17.95 10.86 17.95 11.02C17.95 11.18 17.94 11.33 17.93 11.48L19.45 12.67C20.01 13.12 20.17 13.9 19.82 14.53L17.96 17.75C17.62 18.37 16.85 18.65 16.16 18.38L14.36 17.66C14.1 17.83 13.84 17.98 13.58 18.12L13.31 20.03ZM8.61999 19.25H11.38L11.75 16.7L12.28 16.48C12.72 16.3 13.16 16.04 13.62 15.7L14.07 15.36L16.45 16.32L17.83 13.92L15.8 12.34L15.87 11.78L15.8731 11.7531C15.902 11.5027 15.93 11.2607 15.93 11C15.93 10.73 15.9 10.47 15.87 10.22L15.8 9.66001L17.83 8.08001L16.44 5.68001L14.05 6.64001L13.6 6.29001C13.18 5.97001 12.73 5.71001 12.27 5.52001L11.75 5.30001L11.38 2.75001H8.61999L8.24999 5.30001L7.71999 5.51001C7.27999 5.70001 6.83999 5.95001 6.37999 6.30001L5.92999 6.63001L3.54999 5.68001L2.15999 8.07001L4.18999 9.65001L4.11999 10.21C4.08999 10.47 4.05999 10.74 4.05999 11C4.05999 11.26 4.07999 11.53 4.11999 11.78L4.18999 12.34L2.15999 13.92L3.53999 16.32L5.92999 15.36L6.37999 15.71C6.80999 16.04 7.23999 16.29 7.70999 16.48L8.23999 16.7L8.61999 19.25ZM13.5 11C13.5 12.933 11.933 14.5 9.99999 14.5C8.06699 14.5 6.49999 12.933 6.49999 11C6.49999 9.06701 8.06699 7.50001 9.99999 7.50001C11.933 7.50001 13.5 9.06701 13.5 11Z" fill="black"/>
</svg>
