<svg width="24" height="24" viewBox="0 0 24 24" fill="none" xmlns="http://www.w3.org/2000/svg">
<path d="M3.15625 1C2.58438 1 2.03593 1.22718 1.63155 1.63155C1.22718 2.03593 1 2.58438 1 3.15625V13.2188C1 13.7906 1.22718 14.3391 1.63155 14.7434C2.03593 15.1478 2.58438 15.375 3.15625 15.375H9.625V16.8125H2.4375C2.05625 16.8125 1.69062 16.964 1.42103 17.2335C1.15145 17.5031 1 17.8688 1 18.25V22.5625C1 22.9437 1.15145 23.3094 1.42103 23.579C1.69062 23.8485 2.05625 24 2.4375 24H22.5625C22.9437 24 23.3094 23.8485 23.579 23.579C23.8485 23.3094 24 22.9437 24 22.5625V18.25C24 17.8688 23.8485 17.5031 23.579 17.2335C23.3094 16.964 22.9437 16.8125 22.5625 16.8125H15.375V15.375H21.8438C22.4156 15.375 22.9641 15.1478 23.3685 14.7434C23.7728 14.3391 24 13.7906 24 13.2188V3.15625C24 2.58438 23.7728 2.03593 23.3685 1.63155C22.9641 1.22718 22.4156 1 21.8438 1H3.15625ZM3.15625 2.4375H21.8438C22.0344 2.4375 22.2172 2.51323 22.352 2.64802C22.4868 2.78281 22.5625 2.96563 22.5625 3.15625V13.2188C22.5625 13.4094 22.4868 13.5922 22.352 13.727C22.2172 13.8618 22.0344 13.9375 21.8438 13.9375H3.15625C2.96563 13.9375 2.78281 13.8618 2.64802 13.727C2.51323 13.5922 2.4375 13.4094 2.4375 13.2188V3.15625C2.4375 2.96563 2.51323 2.78281 2.64802 2.64802C2.78281 2.51323 2.96563 2.4375 3.15625 2.4375ZM18.25 18.9688C18.25 18.7781 18.3257 18.5953 18.4605 18.4605C18.5953 18.3257 18.7781 18.25 18.9688 18.25C19.1594 18.25 19.3422 18.3257 19.477 18.4605C19.6118 18.5953 19.6875 18.7781 19.6875 18.9688C19.6875 19.1594 19.6118 19.3422 19.477 19.477C19.3422 19.6118 19.1594 19.6875 18.9688 19.6875C18.7781 19.6875 18.5953 19.6118 18.4605 19.477C18.3257 19.3422 18.25 19.1594 18.25 18.9688ZM21.125 18.9688C21.125 18.7781 21.2007 18.5953 21.3355 18.4605C21.4703 18.3257 21.6531 18.25 21.8438 18.25C22.0344 18.25 22.2172 18.3257 22.352 18.4605C22.4868 18.5953 22.5625 18.7781 22.5625 18.9688C22.5625 19.1594 22.4868 19.3422 22.352 19.477C22.2172 19.6118 22.0344 19.6875 21.8438 19.6875C21.6531 19.6875 21.4703 19.6118 21.3355 19.477C21.2007 19.3422 21.125 19.1594 21.125 18.9688ZM3.15625 18.25H10.3438C10.5344 18.25 10.7172 18.3257 10.852 18.4605C10.9868 18.5953 11.0625 18.7781 11.0625 18.9688C11.0625 19.1594 10.9868 19.3422 10.852 19.477C10.7172 19.6118 10.5344 19.6875 10.3438 19.6875H3.15625C2.96563 19.6875 2.78281 19.6118 2.64802 19.477C2.51323 19.3422 2.4375 19.1594 2.4375 18.9688C2.4375 18.7781 2.51323 18.5953 2.64802 18.4605C2.78281 18.3257 2.96563 18.25 3.15625 18.25ZM2.4375 21.4844C2.4375 21.3891 2.47536 21.2977 2.54276 21.2303C2.61015 21.1629 2.70156 21.125 2.79688 21.125H10.7031C10.7984 21.125 10.8898 21.1629 10.9572 21.2303C11.0246 21.2977 11.0625 21.3891 11.0625 21.4844C11.0625 21.5797 11.0246 21.6711 10.9572 21.7385C10.8898 21.8059 10.7984 21.8438 10.7031 21.8438H2.79688C2.70156 21.8438 2.61015 21.8059 2.54276 21.7385C2.47536 21.6711 2.4375 21.5797 2.4375 21.4844Z" fill="black"/>
</svg>
