<svg width="20" height="20" viewBox="0 0 20 20" fill="none" xmlns="http://www.w3.org/2000/svg">
<path fill-rule="evenodd" clip-rule="evenodd" d="M7.64 5.64C7.87 5.14 8 4.59 8 4C8 1.79 6.21 0 4 0C1.79 0 0 1.79 0 4C0 6.21 1.79 8 4 8C4.59 8 5.14 7.87 5.64 7.64L8 10L5.64 12.36C5.14 12.13 4.59 12 4 12C1.79 12 0 13.79 0 16C0 18.21 1.79 20 4 20C6.21 20 8 18.21 8 16C8 15.41 7.87 14.86 7.64 14.36L10 12L17 19H20V18L7.64 5.64ZM4 6C2.9 6 2 5.11 2 4C2 2.89 2.9 2 4 2C5.1 2 6 2.89 6 4C6 5.11 5.1 6 4 6ZM2 16C2 17.11 2.9 18 4 18C5.1 18 6 17.11 6 16C6 14.89 5.1 14 4 14C2.9 14 2 14.89 2 16ZM10 10.5C9.72 10.5 9.5 10.28 9.5 10C9.5 9.72 9.72 9.5 10 9.5C10.28 9.5 10.5 9.72 10.5 10C10.5 10.28 10.28 10.5 10 10.5ZM11 7L17 1H20V2L13 9L11 7Z" fill="black"/>
</svg>
