<svg width="24" height="24" viewBox="0 0 24 24" fill="none" xmlns="http://www.w3.org/2000/svg">
<path d="M3 3.3C3 2.035 4.035 1 5.3 1H19.1C19.71 1 20.295 1.24232 20.7263 1.67365C21.1577 2.10499 21.4 2.69 21.4 3.3V21.7C21.4 22.31 21.1577 22.895 20.7263 23.3263C20.295 23.7577 19.71 24 19.1 24H5.3C4.69 24 4.10499 23.7577 3.67365 23.3263C3.24232 22.895 3 22.31 3 21.7V3.3ZM5.3 3.3V19.4H19.1V3.3H5.3ZM12.2 22.85C12.505 22.85 12.7975 22.7288 13.0132 22.5132C13.2288 22.2975 13.35 22.005 13.35 21.7C13.35 21.395 13.2288 21.1025 13.0132 20.8868C12.7975 20.6712 12.505 20.55 12.2 20.55C11.895 20.55 11.6025 20.6712 11.3868 20.8868C11.1712 21.1025 11.05 21.395 11.05 21.7C11.05 22.005 11.1712 22.2975 11.3868 22.5132C11.6025 22.7288 11.895 22.85 12.2 22.85Z" fill="black"/>
</svg>
