<svg width="16" height="20" viewBox="0 0 16 20" fill="none" xmlns="http://www.w3.org/2000/svg">
<path d="M8 0.5C4 0.5 0 1 0 4.5V14C0 15.93 1.57 17.5 3.5 17.5L2 18.5V19.5H14V18.5L12.5 17.5C14.43 17.5 16 15.93 16 14V4.5C16 1 12.42 0.5 8 0.5ZM8 2.5C11.71 2.5 13.13 2.96 13.67 3.5H2.43C3.03 2.98 4.48 2.5 8 2.5ZM2 5.5H7V8.5H2V5.5ZM14 14C14 14.83 13.33 15.5 12.5 15.5H3.5C2.67 15.5 2 14.83 2 14V10.5H14V14ZM14 8.5H9V5.5H14V8.5Z" fill="black"/>
<path d="M4.5 14.5C5.32843 14.5 6 13.8284 6 13C6 12.1716 5.32843 11.5 4.5 11.5C3.67157 11.5 3 12.1716 3 13C3 13.8284 3.67157 14.5 4.5 14.5Z" fill="black"/>
<path d="M11.5 14.5C12.3284 14.5 13 13.8284 13 13C13 12.1716 12.3284 11.5 11.5 11.5C10.6716 11.5 10 12.1716 10 13C10 13.8284 10.6716 14.5 11.5 14.5Z" fill="black"/>
</svg>
