<svg width="20" height="20" viewBox="0 0 20 20" fill="none" xmlns="http://www.w3.org/2000/svg">
<path d="M17.6 3.35H8.936L8.1 0.5H2.4C1.355 0.5 0.5 1.355 0.5 2.4V14.75C0.5 15.795 1.355 16.65 2.4 16.65H9.05L10 19.5H17.6C18.645 19.5 19.5 18.645 19.5 17.6V5.25C19.5 4.205 18.645 3.35 17.6 3.35ZM5.4115 12.4605C3.274 12.4605 1.526 10.722 1.526 8.575C1.526 6.428 3.2645 4.6895 5.4115 4.6895C6.3995 4.6895 7.302 5.041 8.0145 5.706L8.081 5.763L6.9125 6.884L6.8555 6.8365C6.58 6.58 6.1145 6.276 5.4115 6.276C4.167 6.276 3.1505 7.3115 3.1505 8.575C3.1505 9.8385 4.167 10.874 5.4115 10.874C6.713 10.874 7.2735 10.0475 7.4255 9.487H5.326V8.0145H9.0785L9.088 8.081C9.126 8.2805 9.1355 8.461 9.1355 8.6605C9.1355 10.893 7.606 12.4605 5.4115 12.4605ZM11.14 10.836C11.4535 11.406 11.843 11.957 12.2705 12.451L11.7575 12.9545L11.14 10.836ZM11.8715 10.114H10.931L10.6365 9.126H14.427C14.427 9.126 14.104 10.3705 12.945 11.729C12.451 11.14 12.0995 10.5605 11.8715 10.114ZM18.55 17.6C18.55 18.1225 18.1225 18.55 17.6 18.55H10.95L12.85 16.65L12.0805 14.0185L12.9545 13.1445L15.5005 15.7L16.194 15.0065L13.6195 12.4605C14.4745 11.482 15.1395 10.323 15.4435 9.126H16.65V8.138H13.192V7.15H12.204V8.138H10.342L9.221 4.3H17.6C18.1225 4.3 18.55 4.7275 18.55 5.25V17.6Z" fill="black"/>
</svg>
