<svg width="151" height="20" viewBox="0 0 151 20" fill="none" xmlns="http://www.w3.org/2000/svg">
<path d="M19.7361 10.0168C19.7361 12.8973 18.8022 15.228 16.9344 17.0089C15.0666 18.7897 12.7016 19.6791 9.83926 19.6771C6.97895 19.6771 4.624 18.7877 2.7744 17.0089C0.9248 15.23 0 12.8993 0 10.0168C0 7.14029 0.919745 4.80555 2.75924 3.01255C4.59873 1.21955 6.97086 0.325072 9.87564 0.329115C12.7784 0.329115 15.1475 1.22359 16.983 3.01255C18.8184 4.8015 19.7361 7.13625 19.7361 10.0168ZM13.1928 6.55407C12.7739 6.09858 12.2605 5.74016 11.6886 5.50394C11.1166 5.26772 10.4999 5.15941 9.88171 5.18659C9.25938 5.15969 8.63866 5.26862 8.06268 5.50582C7.4867 5.74302 6.96927 6.1028 6.54636 6.56014C5.6964 7.51012 5.24661 8.75192 5.29106 10.0259C5.24367 11.293 5.69426 12.5283 6.54636 13.4673C6.97128 13.9191 7.48871 14.2737 8.06329 14.5071C8.63788 14.7405 9.25607 14.8471 9.87564 14.8197C10.4934 14.845 11.1092 14.7361 11.6808 14.5005C12.2524 14.265 12.7662 13.9084 13.1867 13.4552C13.9921 12.4857 14.4329 11.265 14.4329 10.0046C14.4329 8.74427 13.9921 7.52359 13.1867 6.55407H13.1928Z" fill="white"/>
<path d="M39.1963 16.1659C39.1963 16.833 38.6667 17.5849 37.6075 18.4218C36.5482 19.2587 34.5885 19.6751 31.7282 19.671C28.8699 19.671 26.5149 18.7816 24.6633 17.0027C22.8117 15.2239 21.8869 12.8932 21.8889 10.0107C21.8889 7.13418 22.8087 4.79944 24.6482 3.00644C26.4876 1.21345 28.8598 0.318969 31.7646 0.323012C34.6673 0.323012 36.6311 0.741445 37.656 1.57831C38.6808 2.41518 39.1943 3.16715 39.1963 3.83421C39.2007 4.48977 38.9644 5.12415 38.5323 5.61711C38.3636 5.84773 38.1452 6.03749 37.8932 6.17237C37.6413 6.30725 37.3623 6.3838 37.0768 6.39636C36.5493 6.39636 35.7094 6.19321 34.5662 5.78994C33.4231 5.38667 32.562 5.18351 31.992 5.18351C28.8992 5.18351 27.3528 6.78953 27.3528 10.0016C27.3528 13.2136 28.8992 14.8196 31.992 14.8196C32.8762 14.7514 33.7445 14.5468 34.5662 14.2132C35.7094 13.8069 36.5493 13.6068 37.0768 13.6068C37.3625 13.6187 37.6417 13.6949 37.8937 13.8299C38.1457 13.9648 38.364 14.1549 38.5323 14.386C38.9647 14.8776 39.2011 15.5112 39.1963 16.1659Z" fill="white"/>
<path d="M51.9889 5.27145V17.1392C51.9889 18.7402 51.0793 19.5406 49.26 19.5406C47.4407 19.5406 46.5311 18.7402 46.5311 17.1392V5.27145H43.7718C42.2982 5.27145 41.5614 4.53969 41.5614 3.07618C41.5614 1.61268 42.2962 0.87789 43.7658 0.871826H54.7784C56.248 0.871826 56.9838 1.60358 56.9858 3.06709C56.9879 4.53059 56.2521 5.26235 54.7784 5.26235L51.9889 5.27145Z" fill="white"/>
<path d="M78.8748 10.0168C78.8748 12.8973 77.9409 15.228 76.0731 17.0089C74.2053 18.7897 71.8402 19.6791 68.9779 19.6771C66.1196 19.6771 63.7647 18.7877 61.9131 17.0089C60.0614 15.23 59.1326 12.8993 59.1265 10.0168C59.1265 7.14029 60.0463 4.80555 61.8858 3.01255C63.7253 1.21955 66.0974 0.325072 69.0022 0.329115C71.9049 0.329115 74.274 1.22359 76.1095 3.01255C77.9449 4.8015 78.8667 7.13625 78.8748 10.0168ZM72.3314 6.55407C71.45 5.67624 70.2568 5.18337 69.0128 5.18337C67.7688 5.18337 66.5755 5.67624 65.6941 6.55407C64.8442 7.50406 64.3944 8.74586 64.4388 10.0198C64.3914 11.2869 64.842 12.5222 65.6941 13.4613C66.5783 14.3314 67.7692 14.8191 69.0097 14.8191C70.2503 14.8191 71.4412 14.3314 72.3254 13.4613C73.1307 12.4917 73.5716 11.2711 73.5716 10.0107C73.5716 8.75033 73.1307 7.52966 72.3254 6.56014L72.3314 6.55407Z" fill="white"/>
<path d="M86.7007 13.3037V17.112C86.7007 18.713 85.7911 19.5135 83.9718 19.5135C82.1525 19.5135 81.2429 18.713 81.2429 17.112V3.33706C81.2429 1.73609 82.1525 0.935612 83.9718 0.935612H90.1573C90.8959 0.927297 91.6268 1.08671 92.2949 1.40184C92.963 1.71697 93.5508 2.17961 94.0142 2.75489C95.0469 3.94984 95.5829 5.49486 95.5121 7.07264C95.4923 8.68878 94.8818 10.2418 93.7959 11.4389C93.261 12.0499 92.5969 12.5342 91.8517 12.8568C91.1064 13.1793 90.2988 13.3319 89.4872 13.3037H86.7007ZM86.7007 4.63481V8.87979H88.2744C89.8187 8.87979 90.5909 8.17229 90.5909 6.7573C90.5909 5.34231 89.8187 4.63481 88.2744 4.63481H86.7007Z" fill="#A076F9"/>
<path d="M117.38 10.0168C117.38 12.8973 116.446 15.228 114.578 17.0089C112.71 18.7897 110.345 19.6791 107.483 19.6771C104.625 19.6771 102.27 18.7877 100.418 17.0089C98.5664 15.23 97.6386 12.8993 97.6345 10.0168C97.6345 7.14029 98.5543 4.80555 100.394 3.01255C102.233 1.21955 104.605 0.325072 107.51 0.329115C110.413 0.329115 112.782 1.22359 114.617 3.01255C116.453 4.8015 117.374 7.13625 117.38 10.0168ZM110.836 6.55407C109.955 5.67624 108.762 5.18337 107.518 5.18337C106.274 5.18337 105.08 5.67624 104.199 6.55407C103.349 7.50406 102.899 8.74586 102.944 10.0198C102.896 11.2869 103.347 12.5222 104.199 13.4613C105.083 14.3314 106.274 14.8191 107.515 14.8191C108.755 14.8191 109.946 14.3314 110.83 13.4613C111.636 12.4917 112.077 11.2711 112.077 10.0107C112.077 8.75033 111.636 7.52966 110.83 6.56014L110.836 6.55407Z" fill="#A076F9"/>
<path d="M127.186 19.5679C125.433 19.5705 123.692 19.2857 122.031 18.725C120.367 18.1651 119.535 17.1625 119.533 15.7171C119.531 14.2718 120.185 13.5502 121.494 13.5522C121.685 13.5522 122.456 13.8039 123.799 14.3102C124.906 14.7668 126.086 15.0235 127.283 15.0683C128.263 15.0683 128.753 14.6549 128.753 13.8281C128.753 13.2864 128.417 12.8326 127.744 12.4667C126.842 12.0078 125.903 11.6274 124.936 11.3296C124.155 11.1037 123.399 10.7989 122.68 10.42C121.281 9.48813 120.582 8.13277 120.582 6.35392C120.582 4.57508 121.166 3.13279 122.334 2.02708C122.868 1.50245 123.5 1.0885 124.194 0.809064C124.888 0.529624 125.631 0.390205 126.379 0.398825C127.749 0.374013 129.115 0.546592 130.436 0.911253C132.589 1.59045 133.456 2.5951 133.038 3.92519C132.619 5.25528 131.853 5.87384 130.739 5.78085C130.175 5.63013 129.622 5.44171 129.084 5.21688C128.234 4.86976 127.33 4.67772 126.412 4.64987C125.636 4.64987 125.248 5.03192 125.248 5.79601C125.248 6.28317 125.577 6.70464 126.234 7.06041C127.131 7.51396 128.06 7.90109 129.014 8.21868C129.804 8.45866 130.567 8.77975 131.291 9.17684C132.706 10.135 133.414 11.5591 133.414 13.4491C133.414 15.3391 132.807 16.836 131.594 17.9397C130.393 19.036 128.811 19.6202 127.186 19.5679Z" fill="#A076F9"/>
<path d="M146.003 5.27145V17.1392C146.003 18.7402 145.093 19.5406 143.274 19.5406C141.455 19.5406 140.545 18.7402 140.545 17.1392V5.27145H137.786C136.312 5.27145 135.576 4.53969 135.576 3.07618C135.576 1.61268 136.31 0.87789 137.78 0.871826H148.793C150.264 0.871826 151 1.60661 151 3.07618C151 4.54575 150.264 5.27751 148.793 5.27145H146.003Z" fill="#A076F9"/>
</svg>

