<svg width="169" height="251" viewBox="0 0 169 251" fill="none" xmlns="http://www.w3.org/2000/svg">
<path d="M203.515 123.182C200.793 134.48 194.53 142.866 186.573 149.935C183.148 150.726 180.252 152.747 178.027 155.791C177.654 156.336 177.331 156.914 177.062 157.518C175.399 158.688 173.667 159.888 171.941 161.058C171.804 161.159 171.646 161.227 171.479 161.257C171.312 161.288 171.14 161.281 170.976 161.236C154.902 156.639 155.058 147.77 158.452 141.067C158.545 140.918 158.666 140.79 158.809 140.69C158.952 140.589 159.113 140.519 159.284 140.482C193.976 134.305 198.656 93.0025 179.287 69.4099C179.134 69.2146 179.048 68.9746 179.043 68.7263C179.038 68.4779 179.114 68.2346 179.259 68.0331C179.404 67.8315 179.611 67.6827 179.848 67.609C180.085 67.5353 180.34 67.5407 180.573 67.6245C203.573 75.5922 208.899 100.995 203.515 123.182Z" fill="url(#paint0_linear_58467_9953)"/>
<path d="M205.884 159.714C199.535 152.042 186.601 147.596 179.814 157.08C177.91 159.741 177.237 164.426 178.057 167.939C178.525 170.016 178.994 172.269 181.042 173.85C185.021 176.982 189.88 173.911 186.632 171.188C178.087 164.105 186.338 155.76 193.36 160.005C198.54 162.699 199.477 173.237 194.53 176.397C181.505 182.807 166.88 171.773 158.48 162.611C155.936 159.86 147.098 146.101 147.949 139.398C151.316 135.827 154.417 131.993 157.46 128.186C162.551 121.893 168.579 115.711 172.852 108.838C176.245 103.366 176.245 98.0676 174.9 91.949C171.799 77.519 165.508 64.5222 157.718 52.0273C149.471 38.7921 139.868 26.1169 128.636 15.2576C123.631 10.4559 118.071 5.30489 111.73 2.40779C109.491 1.42672 107.091 0.863007 104.65 0.744385C102.208 0.863007 99.8082 1.42672 97.5688 2.40779C91.2197 5.30489 85.652 10.4476 80.6636 15.2576C75.3175 20.4444 70.3314 25.9899 65.7399 31.8557C67.0314 32.6391 68.0983 33.7435 68.8369 35.0614C69.5756 36.3794 69.9608 37.8661 69.9551 39.377C69.9551 41.7246 69.025 43.9765 67.3684 45.6394C65.7119 47.3022 63.464 48.2405 61.1173 48.2485C59.0103 48.2567 56.9723 47.498 55.3834 46.1138C54.0947 48.0739 52.806 50.0339 51.5783 52.0245C43.7964 64.525 37.5331 77.5301 34.396 91.9463C33.0519 98.0648 33.0796 103.363 36.4745 108.835C40.7174 115.714 46.7451 121.89 51.8361 128.184C55.6411 132.897 59.5016 137.726 63.8637 141.97C42.0643 141.18 18.3028 151.455 6.83217 168.347C-12.0712 196.153 16.2243 227.533 45.8084 216.555C47.5044 215.942 47.5044 213.627 45.8971 212.837C24.4468 202.302 24.6519 175.372 49.6993 167.468C51.4303 166.967 53.254 166.877 55.0259 167.204C50.4033 170.808 46.9197 175.546 45.9553 181.665C44.8717 188.396 46.7451 196.184 51.34 201.277C56.0513 206.544 63.1016 209.18 69.7445 211.024C84.5795 215.183 101.551 215.063 115.275 222.585C121.039 225.748 125.019 230.577 125.983 237.162C126.482 240.616 126.831 241.963 124.462 244.539C122.092 247.115 122.824 249.105 125.105 250.247C129.406 248.226 133.358 245.828 136.165 242.579C139.152 239.157 140.85 234.798 140.965 230.256C141.14 225.718 140.292 221.035 138.712 216.497C137.612 213.353 136.122 210.36 134.278 207.586C133.46 206.369 132.569 205.202 131.609 204.093L130.617 202.965C130.462 202.799 130.301 202.638 130.14 202.471L129.032 201.443C128.855 201.282 128.685 201.124 128.514 200.963C125.839 198.745 122.882 196.777 119.878 194.825C115.619 192.006 111.309 189.184 107.221 186.042C104.416 183.947 101.756 181.664 99.2593 179.209C98.0329 178.061 96.8875 176.83 95.8312 175.524C94.2765 173.462 92.73 171.052 92.7688 168.202C92.7874 166.809 93.3353 165.475 94.3014 164.471C95.0108 163.639 95.9282 163.129 96.8483 162.658C97.1004 162.522 97.3499 162.381 97.5993 162.236C97.5577 162.264 97.5189 162.295 97.4774 162.32L97.5245 162.295C95.4238 163.681 93.5476 165.804 93.8413 168.191C93.9383 170.559 95.5346 172.652 97.0145 174.582C97.8459 175.582 98.7466 176.547 99.675 177.484C102.322 180.068 105.306 182.355 108.316 184.548C112.473 187.476 116.819 190.093 121.195 192.735C123.029 193.844 124.883 195.005 126.707 196.228C126.984 196.4 127.261 196.564 127.558 196.738C127.882 196.957 128.159 197.207 128.469 197.431C128.988 197.792 129.473 198.18 129.96 198.565C130.448 198.951 130.886 199.286 131.346 199.674L132.455 200.581L133.214 201.338C133.422 201.537 133.649 201.706 133.854 201.911C134.857 202.94 135.794 204.016 136.692 205.125C137.124 205.624 137.595 206.078 138.014 206.588C154.365 213.317 172.473 216.685 188.142 210.625C206.763 203.397 220.37 177.188 205.884 159.714ZM63.1016 64.9325C62.443 64.9364 61.7981 64.7445 61.2487 64.3813C60.6993 64.0181 60.27 63.4999 60.0153 62.8923C59.7606 62.2848 59.692 61.6153 59.8181 60.9687C59.9442 60.322 60.2594 59.7274 60.7237 59.2602C61.188 58.793 61.7806 58.4743 62.4262 58.3443C63.0718 58.2144 63.7415 58.2791 64.3503 58.5303C64.9591 58.7815 65.4797 59.2079 65.8459 59.7554C66.2122 60.3029 66.4078 60.9469 66.4078 61.6057C66.4078 62.4847 66.0601 63.3279 65.4406 63.9513C64.8211 64.5746 63.9802 64.9274 63.1016 64.9325ZM71.9394 57.7605C70.8426 57.7632 69.7696 57.4404 68.8563 56.8328C67.943 56.2252 67.2304 55.3602 66.8087 54.3473C66.3871 53.3343 66.2754 52.2191 66.4877 51.1426C66.7 50.0661 67.2268 49.0768 68.0014 48.3C68.776 47.5232 69.7635 46.9937 70.8391 46.7787C71.9147 46.5636 73.0298 46.6726 74.0434 47.0918C75.057 47.5111 75.9235 48.2218 76.5331 49.1339C77.1428 50.046 77.4682 51.1185 77.4682 52.2158C77.4682 53.6858 76.8847 55.0957 75.8458 56.1355C74.8069 57.1752 73.3979 57.7597 71.9283 57.7605H71.9394Z" fill="url(#paint1_linear_58467_9953)"/>
<path d="M209.476 113.388C209.476 113.388 211.69 112.396 211.69 111.172C211.69 109.949 210.699 108.957 209.476 108.957C208.253 108.957 207.261 109.949 207.261 111.172C207.261 112.396 209.476 113.388 209.476 113.388Z" fill="#AC3FE4"/>
<path d="M208.492 126.878C208.492 126.878 211.812 125.391 211.812 123.557C211.812 121.722 210.326 120.235 208.492 120.235C206.658 120.235 205.172 121.722 205.172 123.557C205.172 125.391 208.492 126.878 208.492 126.878Z" fill="#AC3FE4"/>
<path d="M205.449 138.031C207.283 138.031 208.769 136.544 208.769 134.71C208.769 132.875 207.283 131.388 205.449 131.388C203.615 131.388 202.129 132.875 202.129 134.71C202.129 136.544 203.615 138.031 205.449 138.031Z" fill="#AC3FE4"/>
<path d="M190.608 170.049C192.442 170.049 193.929 168.562 193.929 166.728C193.929 164.893 192.442 163.406 190.608 163.406C188.775 163.406 187.288 164.893 187.288 166.728C187.288 168.562 188.775 170.049 190.608 170.049Z" fill="#AC3FE4"/>
<path d="M120.552 237.106C121.774 237.106 122.766 236.115 122.766 234.891C122.766 233.668 121.774 232.676 120.552 232.676C119.329 232.676 118.337 233.668 118.337 234.891C118.337 236.115 119.329 237.106 120.552 237.106Z" fill="#A076F9"/>
<path d="M112.179 230.2C114.013 230.2 115.499 228.713 115.499 226.879C115.499 225.045 114.013 223.558 112.179 223.558C110.346 223.558 108.859 225.045 108.859 226.879C108.859 228.713 110.346 230.2 112.179 230.2Z" fill="#A076F9"/>
<path d="M47.7705 210.009C48.9934 210.009 49.9848 209.018 49.9848 207.794C49.9848 206.571 48.9934 205.579 47.7705 205.579C46.5476 205.579 45.5562 206.571 45.5562 207.794C45.5562 209.018 46.5476 210.009 47.7705 210.009Z" fill="#A076F9"/>
<path d="M39.8001 201.31C41.6337 201.31 43.1202 199.823 43.1202 197.989C43.1202 196.154 41.6337 194.667 39.8001 194.667C37.9665 194.667 36.48 196.154 36.48 197.989C36.48 199.823 37.9665 201.31 39.8001 201.31Z" fill="#A076F9"/>
<path d="M104.644 126.978C106.215 126.775 107.504 126.573 108.712 130.069C109.921 133.565 112.141 139.88 117.179 146.537C122.217 153.193 133.103 155.006 142.781 153.19C152.458 151.374 155.681 140.887 156.285 134.71C156.889 128.533 159.309 125.561 161.526 122.536C163.743 119.512 162.13 118.101 154.271 116.285C146.411 114.469 126.452 114.269 120.405 116.285C114.358 118.3 104.644 119.118 104.644 119.118C104.644 119.118 94.9277 118.311 88.8806 116.293C82.8335 114.275 62.8771 114.48 55.0148 116.293C47.1525 118.106 45.5423 119.52 47.7594 122.545C49.9765 125.569 52.3959 128.541 53 134.718C53.6042 140.895 56.83 151.385 66.5048 153.199C76.1796 155.012 87.0682 153.198 92.1065 146.545C97.1448 139.891 99.3619 133.57 100.573 130.077C101.784 126.584 103.07 126.775 104.644 126.978Z" fill="#F7288E"/>
<path d="M97.264 128.927C96.3272 134.546 94.1046 139.55 90.5046 143.504C89.81 144.243 89.0773 144.947 88.3097 145.611C87.9605 145.904 87.6086 146.196 87.2289 146.459C85.8537 147.509 84.3721 148.412 82.8086 149.154C74.295 153.279 61.6549 151.671 57.703 142.04C56.0069 137.854 55.4859 132.994 55.4499 128.516C55.4499 125.414 55.3335 121.081 58.3182 119.237C60.6018 117.851 67.0674 117.394 73.7962 117.51H75.2317C75.847 117.541 76.4899 117.568 77.1052 117.568C83.7176 117.862 89.9504 118.622 91.9679 119.528C94.3984 120.637 95.9476 121.666 96.7679 123.102C97.5882 124.538 97.7046 126.326 97.264 128.927Z" fill="#2F2667"/>
<path d="M153.17 128.516C153.17 132.994 152.644 137.854 150.917 142.04C150.505 143.069 149.965 144.043 149.31 144.937C148.733 145.743 148.066 146.48 147.32 147.133C146.965 147.466 146.584 147.77 146.178 148.039C140.561 152.109 132.075 152.198 125.812 149.148C117.531 145.137 112.85 137.759 111.387 128.91C110.508 123.582 111.913 121.649 116.652 119.512C118.759 118.577 125.243 117.815 132.042 117.552C132.54 117.524 133.067 117.524 133.563 117.493C134.558 117.463 135.583 117.463 136.578 117.463C142.675 117.463 148.254 117.962 150.33 119.221C153.328 121.081 153.212 125.414 153.17 128.516Z" fill="#2F2667"/>
<path d="M153.17 128.516C153.17 132.994 152.644 137.854 150.917 142.04C150.505 143.069 149.965 144.043 149.31 144.937L136.581 117.491C142.678 117.491 148.257 117.99 150.332 119.248C153.328 121.081 153.212 125.414 153.17 128.516Z" fill="#5C5CA0"/>
<path d="M147.331 147.133C146.977 147.466 146.595 147.77 146.189 148.039L132.055 117.568C132.554 117.541 133.081 117.541 133.577 117.51L147.331 147.133Z" fill="#5C5CA0"/>
<path d="M88.3984 145.816C88.0465 146.093 87.6668 146.312 87.2899 146.548L87.2317 146.459L73.7962 117.51H75.2317L88.3208 145.611L88.3984 145.816Z" fill="#5C5CA0"/>
<path d="M97.264 128.927C96.3272 134.546 94.1046 139.55 90.5046 143.504L77.1052 117.568C83.7176 117.862 89.9504 118.622 91.9679 119.528C94.3984 120.637 95.9476 121.666 96.7679 123.102C97.5882 124.538 97.7046 126.326 97.264 128.927Z" fill="#5C5CA0"/>
<defs>
<linearGradient id="paint0_linear_58467_9953" x1="0.721398" y1="125.487" x2="211.964" y2="125.487" gradientUnits="userSpaceOnUse">
<stop stop-color="#A076F9"/>
<stop offset="0.51" stop-color="#A076F9"/>
<stop offset="1" stop-color="#AC3FE4"/>
</linearGradient>
<linearGradient id="paint1_linear_58467_9953" x1="0.707492" y1="125.494" x2="211.962" y2="125.494" gradientUnits="userSpaceOnUse">
<stop stop-color="#A076F9"/>
<stop offset="0.51" stop-color="#A076F9"/>
<stop offset="1" stop-color="#AC3FE4"/>
</linearGradient>
</defs>
</svg>
