<svg style="width: 100%" viewBox="0 0 222 53" fill="none" xmlns="http://www.w3.org/2000/svg">
<path d="M43.0941 26.0086C42.5158 28.4084 41.1849 30.1898 39.4941 31.6915C38.7663 31.8594 38.1508 32.2887 37.678 32.9353C37.5988 33.0512 37.5302 33.174 37.473 33.3022C37.1197 33.5507 36.7516 33.8057 36.3847 34.0542C36.3556 34.0756 36.3221 34.09 36.2866 34.0966C36.2511 34.1031 36.2146 34.1015 36.1798 34.0919C32.7641 33.1155 32.7971 31.2316 33.5185 29.8076C33.5381 29.7761 33.5639 29.7489 33.5942 29.7275C33.6246 29.7062 33.6589 29.6912 33.6952 29.6833C41.0671 28.3713 42.0618 19.5977 37.9459 14.5861C37.9133 14.5446 37.8951 14.4936 37.894 14.4409C37.8929 14.3881 37.909 14.3364 37.9398 14.2936C37.9706 14.2508 38.0146 14.2192 38.065 14.2035C38.1154 14.1879 38.1695 14.189 38.2192 14.2068C43.1065 15.8994 44.2384 21.2955 43.0941 26.0086Z" fill="url(#paint0_linear_944_257)"/>
<path d="M43.5977 33.7686C42.2485 32.1391 39.5 31.1945 38.0578 33.2091C37.6532 33.7745 37.5101 34.7697 37.6844 35.5159C37.784 35.957 37.8835 36.4358 38.3187 36.7715C39.1644 37.4369 40.1967 36.7844 39.5065 36.2061C37.6909 34.7014 39.4441 32.9288 40.9364 33.8304C42.0371 34.4029 42.2361 36.6413 41.1849 37.3127C38.417 38.6742 35.3094 36.3304 33.5244 34.384C32.9838 33.7998 31.1057 30.8771 31.2865 29.4531C32.002 28.6946 32.661 27.8801 33.3077 27.0715C34.3895 25.7347 35.6704 24.4214 36.5785 22.9615C37.2993 21.799 37.2993 20.6736 37.0137 19.3739C36.3547 16.3086 35.0178 13.5478 33.3624 10.8936C31.6098 8.08218 29.5693 5.38969 27.1824 3.08294C26.1189 2.06295 24.9375 0.968755 23.5901 0.353345C23.1142 0.144944 22.6043 0.0251979 22.0854 0C21.5665 0.0251979 21.0566 0.144944 20.5808 0.353345C19.2316 0.968755 18.0485 2.06118 16.9884 3.08294C15.8524 4.18472 14.7928 5.36272 13.8171 6.60873C14.0916 6.77515 14.3183 7.00975 14.4753 7.28971C14.6322 7.56967 14.7141 7.88548 14.7129 8.20644C14.7129 8.70512 14.5152 9.18348 14.1632 9.53671C13.8112 9.88993 13.3335 10.0892 12.8348 10.0909C12.3871 10.0927 11.954 9.93152 11.6164 9.63749C11.3425 10.0538 11.0687 10.4702 10.8078 10.893C9.15417 13.5484 7.82323 16.311 7.15659 19.3733C6.87097 20.673 6.87686 21.7985 7.59827 22.961C8.49989 24.422 9.78076 25.7341 10.8626 27.071C11.6712 28.0721 12.4915 29.098 13.4185 29.9996C8.7861 29.8318 3.7368 32.0142 1.2993 35.6025C-2.71764 41.5092 3.29511 48.1751 9.58171 45.843C9.94212 45.7128 9.94213 45.2211 9.60056 45.0533C5.04241 42.8154 5.08599 37.0948 10.4085 35.4158C10.7764 35.3095 11.1639 35.2903 11.5404 35.3598C10.5581 36.1254 9.81786 37.1319 9.61292 38.4316C9.38266 39.8615 9.78076 41.5157 10.7572 42.5975C11.7583 43.7164 13.2565 44.2765 14.6681 44.6681C17.8205 45.5515 21.427 45.5262 24.3433 47.1239C25.5682 47.7958 26.4139 48.8217 26.6188 50.2204C26.7248 50.9541 26.799 51.2403 26.2955 51.7874C25.792 52.3345 25.9475 52.7574 26.4322 53C27.3461 52.5707 28.1859 52.0613 28.7825 51.3711C29.4172 50.6441 29.778 49.7182 29.8025 48.7534C29.8396 47.7893 29.6594 46.7947 29.3237 45.8306C29.0899 45.1628 28.7733 44.527 28.3814 43.9379C28.2077 43.6792 28.0183 43.4314 27.8143 43.1959L27.6035 42.9562C27.5705 42.9208 27.5364 42.8867 27.5022 42.8513L27.2666 42.6329C27.229 42.5987 27.193 42.5651 27.1565 42.531C26.5882 42.0598 25.9599 41.6417 25.3215 41.2271C24.4163 40.6282 23.5006 40.0287 22.6319 39.3615C22.0358 38.9163 21.4705 38.4313 20.94 37.9098C20.6794 37.6661 20.436 37.4045 20.2115 37.1272C19.8811 36.689 19.5525 36.1772 19.5608 35.5718C19.5647 35.2758 19.6812 34.9925 19.8864 34.7792C20.0372 34.6025 20.2321 34.4941 20.4276 34.394C20.4812 34.3652 20.5342 34.3351 20.5872 34.3045C20.5784 34.3104 20.5702 34.3169 20.5613 34.3222L20.5713 34.3169C20.1249 34.6113 19.7263 35.0624 19.7887 35.5695C19.8093 36.0724 20.1485 36.517 20.463 36.9269C20.6396 37.1395 20.831 37.3445 21.0283 37.5435C21.5907 38.0924 22.225 38.5782 22.8645 39.044C23.7479 39.6659 24.6713 40.2219 25.6012 40.7831C25.9911 41.0187 26.385 41.2654 26.7725 41.5251C26.8314 41.5616 26.8903 41.5964 26.9533 41.6335C27.0222 41.68 27.0811 41.733 27.1471 41.7807C27.2572 41.8573 27.3603 41.9397 27.4639 42.0216C27.5676 42.1034 27.6606 42.1747 27.7584 42.2571L27.9939 42.4497L28.1553 42.6105C28.1995 42.6529 28.2478 42.6888 28.2913 42.7324C28.5045 42.9509 28.7036 43.1794 28.8944 43.4149C28.9862 43.5209 29.0864 43.6175 29.1753 43.7259C32.6498 45.1552 36.4978 45.8707 39.8275 44.5833C43.7843 43.048 46.6759 37.4805 43.5977 33.7686ZM13.2565 13.635C13.1166 13.6358 12.9795 13.5951 12.8628 13.5179C12.746 13.4408 12.6548 13.3307 12.6007 13.2016C12.5466 13.0726 12.532 12.9303 12.5588 12.793C12.5856 12.6556 12.6525 12.5293 12.7512 12.4301C12.8499 12.3308 12.9758 12.2631 13.113 12.2355C13.2502 12.2079 13.3925 12.2217 13.5219 12.275C13.6512 12.3284 13.7618 12.419 13.8397 12.5353C13.9175 12.6516 13.9591 12.7884 13.9591 12.9283C13.9591 13.115 13.8852 13.2942 13.7535 13.4266C13.6219 13.559 13.4432 13.6339 13.2565 13.635ZM15.1345 12.1115C14.9015 12.1121 14.6734 12.0435 14.4794 11.9144C14.2853 11.7854 14.1339 11.6016 14.0443 11.3865C13.9547 11.1713 13.9309 10.9344 13.976 10.7057C14.0212 10.477 14.1331 10.2669 14.2977 10.1019C14.4623 9.93687 14.6722 9.8244 14.9007 9.77871C15.1293 9.73303 15.3662 9.75618 15.5816 9.84524C15.797 9.93429 15.9811 10.0853 16.1107 10.279C16.2403 10.4728 16.3094 10.7006 16.3094 10.9337C16.3094 11.246 16.1854 11.5454 15.9646 11.7663C15.7439 11.9872 15.4445 12.1113 15.1322 12.1115H15.1345Z" fill="url(#paint1_linear_944_257)"/>
<path d="M44.3609 23.9279C44.6208 23.9279 44.8314 23.7173 44.8314 23.4574C44.8314 23.1975 44.6208 22.9869 44.3609 22.9869C44.101 22.9869 43.8903 23.1975 43.8903 23.4574C43.8903 23.7173 44.101 23.9279 44.3609 23.9279Z" fill="#894DF6"/>
<path d="M44.1518 26.7936C44.5415 26.7936 44.8573 26.4777 44.8573 26.0881C44.8573 25.6984 44.5415 25.3825 44.1518 25.3825C43.7622 25.3825 43.4463 25.6984 43.4463 26.0881C43.4463 26.4777 43.7622 26.7936 44.1518 26.7936Z" fill="#894DF6"/>
<path d="M43.5052 29.1627C43.8948 29.1627 44.2107 28.8469 44.2107 28.4572C44.2107 28.0676 43.8948 27.7517 43.5052 27.7517C43.1156 27.7517 42.7997 28.0676 42.7997 28.4572C42.7997 28.8469 43.1156 29.1627 43.5052 29.1627Z" fill="#894DF6"/>
<path d="M40.3516 35.9641C40.7412 35.9641 41.0571 35.6482 41.0571 35.2585C41.0571 34.8689 40.7412 34.553 40.3516 34.553C39.962 34.553 39.6461 34.8689 39.6461 35.2585C39.6461 35.6482 39.962 35.9641 40.3516 35.9641Z" fill="#894DF6"/>
<path d="M25.4646 50.2086C25.7244 50.2086 25.9351 49.9979 25.9351 49.738C25.9351 49.4782 25.7244 49.2675 25.4646 49.2675C25.2047 49.2675 24.994 49.4782 24.994 49.738C24.994 49.9979 25.2047 50.2086 25.4646 50.2086Z" fill="#894DF6"/>
<path d="M23.6855 48.7416C24.0751 48.7416 24.391 48.4257 24.391 48.0361C24.391 47.6465 24.0751 47.3306 23.6855 47.3306C23.2958 47.3306 22.98 47.6465 22.98 48.0361C22.98 48.4257 23.2958 48.7416 23.6855 48.7416Z" fill="#894DF6"/>
<path d="M9.99866 44.4526C10.2585 44.4526 10.4692 44.2419 10.4692 43.982C10.4692 43.7222 10.2585 43.5115 9.99866 43.5115C9.73879 43.5115 9.52812 43.7222 9.52812 43.982C9.52812 44.2419 9.73879 44.4526 9.99866 44.4526Z" fill="#894DF6"/>
<path d="M8.30496 42.6046C8.6946 42.6046 9.01047 42.2887 9.01047 41.8991C9.01047 41.5094 8.6946 41.1936 8.30496 41.1936C7.91532 41.1936 7.59945 41.5094 7.59945 41.8991C7.59945 42.2887 7.91532 42.6046 8.30496 42.6046Z" fill="#894DF6"/>
<path d="M22.0842 26.8148C22.4182 26.7718 22.692 26.7288 22.9488 27.4714C23.2055 28.214 23.6772 29.5556 24.7479 30.9695C25.8185 32.3835 28.1317 32.7686 30.1882 32.3829C32.2447 31.9972 32.9296 29.7693 33.058 28.4572C33.1863 27.1452 33.7005 26.5138 34.1716 25.8713C34.6427 25.2288 34.3 24.9291 32.6298 24.5434C30.9597 24.1576 26.7184 24.1152 25.4334 24.5434C24.1484 24.9715 22.0842 25.1452 22.0842 25.1452C22.0842 25.1452 20.0195 24.9738 18.7345 24.5451C17.4495 24.1164 13.2088 24.16 11.5381 24.5451C9.86733 24.9303 9.52518 25.2306 9.9963 25.8731C10.4674 26.5156 10.9815 27.1469 11.1099 28.459C11.2383 29.7711 11.9238 31.9995 13.9797 32.3847C16.0356 32.7698 18.3494 32.3847 19.42 30.9713C20.4907 29.5579 20.9618 28.2152 21.2191 27.4732C21.4765 26.7311 21.7497 26.7718 22.0842 26.8148Z" fill="#F7288E"/>
<path d="M20.516 27.2288C20.3169 28.4225 19.8446 29.4855 19.0796 30.3253C18.932 30.4824 18.7763 30.6318 18.6132 30.7728C18.539 30.8353 18.4642 30.8971 18.3835 30.953C18.0913 31.1762 17.7765 31.368 17.4442 31.5255C15.6351 32.4018 12.9491 32.0602 12.1093 30.0143C11.7489 29.1251 11.6382 28.0927 11.6305 27.1416C11.6305 26.4826 11.6058 25.5622 12.24 25.1705C12.7253 24.8761 14.0992 24.7789 15.5291 24.8037H15.8342C15.9649 24.8101 16.1015 24.816 16.2323 24.816C17.6374 24.8784 18.9618 25.0398 19.3906 25.2324C19.907 25.4679 20.2362 25.6864 20.4106 25.9915C20.5849 26.2965 20.6096 26.6764 20.516 27.2288Z" fill="#2F2667"/>
<path d="M32.396 27.1416C32.396 28.0927 32.2841 29.1251 31.9172 30.0143C31.8298 30.233 31.715 30.4398 31.5757 30.6297C31.4531 30.8009 31.3113 30.9575 31.1528 31.0961C31.0775 31.167 30.9963 31.2314 30.9102 31.2887C29.7165 32.1532 27.9133 32.1721 26.5823 31.5243C24.8227 30.6721 23.828 29.105 23.5171 27.2252C23.3304 26.0934 23.6289 25.6829 24.636 25.2288C25.0836 25.0304 26.4616 24.8684 27.9062 24.8125C28.0122 24.8066 28.1241 24.8066 28.2295 24.8001C28.4409 24.7936 28.6588 24.7936 28.8702 24.7936C30.1658 24.7936 31.3513 24.8996 31.7924 25.167C32.4296 25.5622 32.4049 26.4826 32.396 27.1416Z" fill="#2F2667"/>
<path d="M32.396 27.1416C32.396 28.0927 32.2841 29.1251 31.9172 30.0143C31.8298 30.233 31.715 30.4398 31.5757 30.6297L28.8708 24.7995C30.1664 24.7995 31.3519 24.9055 31.793 25.1729C32.4296 25.5622 32.4049 26.4826 32.396 27.1416Z" fill="#5C5CA0"/>
<path d="M31.1552 31.0961C31.0799 31.167 30.9987 31.2314 30.9126 31.2887L27.9091 24.816C28.0151 24.8101 28.127 24.8101 28.2324 24.8037L31.1552 31.0961Z" fill="#5C5CA0"/>
<path d="M18.6321 30.8164C18.5573 30.8753 18.4766 30.9218 18.3965 30.9719L18.3835 30.953L15.5291 24.8037H15.8342L18.6156 30.7728L18.6321 30.8164Z" fill="#5C5CA0"/>
<path d="M20.516 27.2288C20.3169 28.4225 19.8446 29.4855 19.0796 30.3253L16.2323 24.816C17.6374 24.8784 18.9618 25.0398 19.3906 25.2324C19.907 25.4679 20.2362 25.6864 20.4106 25.9915C20.5849 26.2965 20.6096 26.6764 20.516 27.2288Z" fill="#5C5CA0"/>
<path d="M78.4553 26.5177C78.4553 29.6653 77.4348 32.212 75.3938 34.158C73.3529 36.104 70.7685 37.0759 67.6408 37.0737C64.5153 37.0737 61.942 36.1018 59.9209 34.158C57.8998 32.2143 56.8893 29.6675 56.8893 26.5177C56.8893 23.3745 57.8943 20.8233 59.9043 18.864C61.9144 16.9048 64.5065 15.9274 67.6806 15.9318C70.8525 15.9318 73.4412 16.9092 75.4468 18.864C77.4525 20.8189 78.4553 23.3701 78.4553 26.5177ZM71.3053 22.7339C70.8476 22.2362 70.2866 21.8445 69.6616 21.5864C69.0366 21.3283 68.3627 21.2099 67.6872 21.2396C67.0072 21.2103 66.3289 21.3293 65.6995 21.5885C65.0701 21.8477 64.5047 22.2408 64.0426 22.7406C63.1138 23.7786 62.6223 25.1355 62.6709 26.5276C62.6191 27.9122 63.1115 29.2621 64.0426 30.2881C64.5069 30.7818 65.0723 31.1693 65.7002 31.4244C66.328 31.6794 67.0036 31.7959 67.6806 31.7659C68.3556 31.7935 69.0285 31.6745 69.6531 31.4172C70.2777 31.1598 70.8391 30.7701 71.2986 30.2749C72.1786 29.2155 72.6604 27.8816 72.6604 26.5044C72.6604 25.1272 72.1786 23.7933 71.2986 22.7339H71.3053Z" fill="#894DF6"/>
<path d="M99.7207 33.2375C99.7207 33.9664 99.1419 34.7881 97.9845 35.7026C96.8271 36.617 94.6856 37.0721 91.5601 37.0676C88.4368 37.0676 85.8635 36.0957 83.8402 34.152C81.8169 32.2082 80.8064 29.6614 80.8086 26.5116C80.8086 23.3684 81.8136 20.8172 83.8237 18.858C85.8337 16.8987 88.4258 15.9213 91.5999 15.9257C94.7718 15.9257 96.9177 16.383 98.0375 17.2974C99.1574 18.2119 99.7185 19.0336 99.7207 19.7625C99.7255 20.4788 99.4673 21.172 98.9951 21.7107C98.8107 21.9627 98.5721 22.1701 98.2968 22.3174C98.0215 22.4648 97.7166 22.5485 97.4047 22.5622C96.8282 22.5622 95.9104 22.3402 94.6613 21.8995C93.4122 21.4589 92.4713 21.2369 91.8484 21.2369C88.4688 21.2369 86.7791 22.9918 86.7791 26.5017C86.7791 30.0115 88.4688 31.7664 91.8484 31.7664C92.8146 31.6919 93.7634 31.4683 94.6613 31.1038C95.9104 30.6598 96.8282 30.4411 97.4047 30.4411C97.7168 30.4541 98.0219 30.5375 98.2973 30.6849C98.5727 30.8324 98.8112 31.0401 98.9951 31.2926C99.4676 31.8298 99.7259 32.5221 99.7207 33.2375Z" fill="#894DF6"/>
<path d="M113.699 21.333V34.3011C113.699 36.0505 112.705 36.9252 110.717 36.9252C108.729 36.9252 107.735 36.0505 107.735 34.3011V21.333H104.72C103.11 21.333 102.305 20.5334 102.305 18.9342C102.305 17.335 103.107 16.5321 104.713 16.5254H116.747C118.353 16.5254 119.157 17.325 119.159 18.9242C119.161 20.5234 118.357 21.3231 116.747 21.3231L113.699 21.333Z" fill="#894DF6"/>
<path d="M143.078 26.5182C143.078 29.6658 142.057 32.2126 140.016 34.1586C137.975 36.1046 135.391 37.0765 132.263 37.0743C129.14 37.0743 126.566 36.1024 124.543 34.1586C122.52 32.2148 121.505 29.668 121.498 26.5182C121.498 23.375 122.503 20.8238 124.513 18.8646C126.523 16.9054 129.115 15.9279 132.29 15.9324C135.461 15.9324 138.05 16.9098 140.056 18.8646C142.061 20.8194 143.069 23.3706 143.078 26.5182ZM135.928 22.7345C134.964 21.7753 133.66 21.2367 132.301 21.2367C130.942 21.2367 129.638 21.7753 128.675 22.7345C127.746 23.7725 127.255 25.1295 127.303 26.5215C127.251 27.9061 127.744 29.256 128.675 30.2821C129.641 31.2329 130.942 31.7658 132.298 31.7658C133.653 31.7658 134.955 31.2329 135.921 30.2821C136.801 29.2227 137.283 27.8888 137.283 26.5116C137.283 25.1344 136.801 23.8005 135.921 22.7411L135.928 22.7345Z" fill="#894DF6"/>
<path d="M151.629 30.1098V34.2712C151.629 36.0206 150.635 36.8953 148.647 36.8953C146.66 36.8953 145.666 36.0206 145.666 34.2712V19.2191C145.666 17.4697 146.66 16.595 148.647 16.595H155.407C156.214 16.5859 157.012 16.7601 157.742 17.1045C158.472 17.4488 159.115 17.9544 159.621 18.583C160.749 19.8887 161.335 21.577 161.258 23.3011C161.236 25.067 160.569 26.7641 159.382 28.0721C158.798 28.7398 158.072 29.269 157.258 29.6214C156.444 29.9739 155.561 30.1407 154.674 30.1098H151.629ZM151.629 20.6372V25.2758H153.349C155.037 25.2758 155.88 24.5027 155.88 22.9565C155.88 21.4103 155.037 20.6372 153.349 20.6372H151.629Z" fill="#A076F9"/>
<path d="M185.152 26.5182C185.152 29.6658 184.132 32.2126 182.091 34.1586C180.05 36.1046 177.466 37.0765 174.338 37.0743C171.215 37.0743 168.641 36.1024 166.618 34.1586C164.595 32.2148 163.581 29.668 163.577 26.5182C163.577 23.375 164.582 20.8238 166.592 18.8646C168.602 16.9054 171.194 15.9279 174.368 15.9324C177.54 15.9324 180.128 16.9098 182.134 18.8646C184.14 20.8194 185.146 23.3706 185.152 26.5182ZM178.002 22.7345C177.039 21.7753 175.735 21.2367 174.376 21.2367C173.017 21.2367 171.713 21.7753 170.75 22.7345C169.821 23.7725 169.329 25.1295 169.378 26.5215C169.326 27.9061 169.819 29.256 170.75 30.2821C171.716 31.2329 173.017 31.7658 174.373 31.7658C175.728 31.7658 177.03 31.2329 177.996 30.2821C178.876 29.2227 179.358 27.8888 179.358 26.5116C179.358 25.1344 178.876 23.8005 177.996 22.7411L178.002 22.7345Z" fill="#A076F9"/>
<path d="M195.868 36.955C193.952 36.9578 192.05 36.6466 190.235 36.0339C188.417 35.422 187.507 34.3265 187.505 32.7471C187.503 31.1678 188.217 30.3793 189.649 30.3815C189.857 30.3815 190.699 30.6565 192.167 31.2098C193.377 31.7087 194.666 31.9892 195.974 32.0381C197.045 32.0381 197.581 31.5864 197.581 30.683C197.581 30.091 197.213 29.5951 196.477 29.1953C195.492 28.6939 194.466 28.2783 193.409 27.9529C192.556 27.706 191.73 27.3729 190.944 26.9589C189.416 25.9406 188.651 24.4596 188.651 22.5158C188.651 20.572 189.29 18.996 190.566 17.7878C191.149 17.2145 191.84 16.7622 192.599 16.4568C193.357 16.1515 194.169 15.9992 194.986 16.0086C196.483 15.9815 197.976 16.17 199.419 16.5685C201.772 17.3107 202.719 18.4085 202.262 19.8619C201.805 21.3153 200.968 21.9912 199.751 21.8896C199.135 21.7249 198.53 21.519 197.942 21.2733C197.013 20.894 196.025 20.6842 195.023 20.6538C194.174 20.6538 193.75 21.0712 193.75 21.9062C193.75 22.4385 194.109 22.899 194.827 23.2878C195.808 23.7834 196.823 24.2064 197.865 24.5535C198.729 24.8157 199.563 25.1666 200.354 25.6004C201.9 26.6474 202.673 28.2036 202.673 30.2688C202.673 32.3341 202.01 33.9697 200.685 35.1758C199.372 36.3737 197.644 37.012 195.868 36.955Z" fill="#A076F9"/>
<path d="M216.429 21.333V34.3011C216.429 36.0505 215.435 36.9252 213.447 36.9252C211.459 36.9252 210.465 36.0505 210.465 34.3011V21.333H207.45C205.84 21.333 205.035 20.5334 205.035 18.9342C205.035 17.335 205.838 16.5321 207.443 16.5254H219.477C221.085 16.5254 221.889 17.3284 221.889 18.9342C221.889 20.54 221.085 21.3396 219.477 21.333H216.429Z" fill="#A076F9"/>
<defs>
<linearGradient id="paint0_linear_944_257" x1="0.000770143" y1="26.4981" x2="44.8895" y2="26.4981" gradientUnits="userSpaceOnUse">
<stop stop-color="#A076F9"/>
<stop offset="0.51" stop-color="#A076F9"/>
<stop offset="1" stop-color="#AC3FE4"/>
</linearGradient>
<linearGradient id="paint1_linear_944_257" x1="-0.00218485" y1="26.4997" x2="44.8891" y2="26.4997" gradientUnits="userSpaceOnUse">
<stop stop-color="#A076F9"/>
<stop offset="0.51" stop-color="#A076F9"/>
<stop offset="1" stop-color="#AC3FE4"/>
</linearGradient>
</defs>
</svg>
