<svg
      xmlns="http://www.w3.org/2000/svg"
      width="10"
      height="14"
      fill="none"
      viewBox="0 0 10 14"
    >
      <path
        fill="#fff"
        d="M5 6.65c-.474 0-.928-.184-1.263-.513A1.732 1.732 0 013.214 4.9c0-.464.188-.91.523-1.237.335-.329.79-.513 1.263-.513.474 0 .928.184 1.263.513A1.732 1.732 0 016.65 5.57c-.09.212-.221.405-.387.567A1.789 1.789 0 015 6.65zM5 0a5.052 5.052 0 00-3.536 1.435A4.85 4.85 0 000 4.9C0 8.575 5 14 5 14s5-5.425 5-9.1a4.85 4.85 0 00-1.464-3.465A5.052 5.052 0 005 0z"
      ></path>
    </svg>